# xmcd
#
# Track frame offsets:
#	150
#	20165
#	35933
#	49091
#	62082
#	80791
#	98187
#	112429
#	127755
#	140469
#	153323
#	167342
#	179341
#	193429
#	206954
#	218564
#	229639
#	244583
#	258532
#
# Disc length: 3592 seconds
#
# Revision: 1
# Processed by: cddbd v1.5.2PL0 Copyright (c) Steve Scherf et al.
# Submitted via: audiograbber 1.83.01
#
DISCID=1e0e0613
DTITLE=Sydney Devine - Line Dance Party
DYEAR=1900
DGENRE=
TTITLE0=All You Ever Do is Bring me Down
TTITLE1=Achy Breaky Heart
TTITLE2=Beautiful Sunday
TTITLE3=Honky Tonk Man
TTITLE4=Chattahoochie
TTITLE5=Line Boogie Shuffle
TTITLE6=Guitars and Cadilllacs
TTITLE7=Ring of Fire
TTITLE8=Love's Got A Hold On You
TTITLE9=Orange Blossom Special
TTITLE10=Ten Guitars
TTITLE11=Not Counting You
TTITLE12=Blanket on the Ground
TTITLE13=These Boots are Made for Walking
TTITLE14=On the Rebound
TTITLE15=Bird of Paradise
TTITLE16=Summertime Blues
TTITLE17=Crystal Chandeliers
TTITLE18=Cotton Eye Joe
EXTD=
EXTT0=
EXTT1=
EXTT2=
EXTT3=
EXTT4=
EXTT5=
EXTT6=
EXTT7=
EXTT8=
EXTT9=
EXTT10=
EXTT11=
EXTT12=
EXTT13=
EXTT14=
EXTT15=
EXTT16=
EXTT17=
EXTT18=
PLAYORDER=
